<svg xmlns="http://www.w3.org/2000/svg" viewBox="0 0 411.43 411.43"><defs><style>.cls-1{fill:#ffc91f;}.cls-2{fill:#070b2b;}</style></defs><title>Asset 1</title><g id="Layer_2" data-name="Layer 2"><g id="Layer_1-2" data-name="Layer 1"><rect class="cls-1" width="411.43" height="411.43" rx="100" ry="100"/><path class="cls-2" d="M92,194.52h27.08a6.71,6.71,0,0,1,6.48,4.95l23.62,86.65a6.71,6.71,0,0,0,12.86.33L234.54,66.1a6.71,6.71,0,0,1,6.38-4.62h25.69a6.71,6.71,0,0,1,6.3,4.39l52.47,142a6.71,6.71,0,0,1-6.3,9H293.41A6.71,6.71,0,0,1,287,212.2l-6.13-19.62a6.71,6.71,0,0,0-6.41-4.71H232.94a6.71,6.71,0,0,0-6.39,4.65L177.09,345.3a6.71,6.71,0,0,1-6.39,4.65H139.43a6.71,6.71,0,0,1-6.37-4.59l-47.4-142A6.71,6.71,0,0,1,92,194.52Z"/><path class="cls-1" d="M247.28,125.74l-7.57,24.51a6.71,6.71,0,0,0,6.42,8.7h15.19a6.71,6.71,0,0,0,6.41-8.71l-7.62-24.51A6.71,6.71,0,0,0,247.28,125.74Z"/><path class="cls-2" d="M404.72,234.64l-105.72,0a6.71,6.71,0,0,1-6.41-4.7l-4.89-15.59a6.71,6.71,0,0,1,6.41-8.72l110.61,0a6.71,6.71,0,0,1,6.71,6.71v15.5A6.71,6.71,0,0,1,404.72,234.64Z"/><path class="cls-2" d="M117.68,202.58l-111,0A6.71,6.71,0,0,1,0,195.83v-15.5a6.71,6.71,0,0,1,6.71-6.71l106.79,0a6.71,6.71,0,0,1,6.49,5l4.18,15.56A6.71,6.71,0,0,1,117.68,202.58Z"/><polyline class="cls-2" points="126.44 202.58 123.82 192.84 122.15 205.38"/><polyline class="cls-2" points="15.6 173.61 0 173.61 0 202.58 15.6 202.55"/><polyline class="cls-2" points="400.86 205.71 411.43 205.71 411.43 234.68 400.86 234.65"/><path class="cls-2" d="M333.38,212.81l-2.74-7.48a2.71,2.71,0,0,0-2.54-1.78l-11.77,0"/><path class="cls-1" d="M321.15,196.44l2.76,7.47a2.71,2.71,0,0,0,2.54,1.77h11.77"/><path class="cls-2" d="M84.62,195.61h1.52a4.86,4.86,0,0,1,4.61,3.3l.45,1.32a4.86,4.86,0,0,1-7.32,5.59l-2-1.32A4.86,4.86,0,0,1,84.62,195.61Z"/><path class="cls-1" d="M80.3,202.57h1.52a4.86,4.86,0,0,1,4.61,3.3l.45,1.32a4.86,4.86,0,0,1-7.32,5.59l-2-1.32A4.86,4.86,0,0,1,80.3,202.57Z"/></g></g></svg>